<?xml version="1.0" standalone="no"?>
<!DOCTYPE svg PUBLIC "-//W3C//DTD SVG 20010904//EN"
 "http://www.w3.org/TR/2001/REC-SVG-20010904/DTD/svg10.dtd">
<svg version="1.0" xmlns="http://www.w3.org/2000/svg"
 width="1672.000000pt" height="816.000000pt" viewBox="0 0 1672.000000 816.000000"
 preserveAspectRatio="xMidYMid meet">

<g transform="translate(0.000000,816.000000) scale(0.100000,-0.100000)"
fill="#000000" stroke="none">
<path d="M7763 7873 c-7 -2 -13 -9 -13 -14 0 -6 5 -7 10 -4 6 4 10 -10 10 -34
0 -22 -5 -42 -12 -44 -7 -3 3 -5 22 -5 19 0 29 2 23 5 -8 3 -13 24 -13 54 0
48 -3 52 -27 42z"/>
<path d="M6567 6612 c-1070 -714 -1088 -727 -1047 -730 40 -3 77 20 1103 706
1042 696 1104 741 1047 749 -8 1 -505 -325 -1103 -725z"/>
<path d="M7853 7324 c-3 -8 -2 -19 3 -24 5 -5 470 -290 1033 -635 983 -602
1025 -626 1067 -623 42 3 21 17 -1016 651 -582 356 -1063 647 -1069 647 -7 0
-14 -7 -18 -16z"/>
<path d="M10146 5852 c-3 -6 2 -8 14 -5 29 8 37 -23 13 -50 -38 -41 -37 -47 4
-46 32 2 33 3 9 6 l-28 5 22 23 c27 29 24 69 -7 73 -11 2 -24 -1 -27 -6z"/>
<path d="M5223 5553 c-7 -2 -13 -9 -13 -14 0 -6 5 -7 10 -4 6 4 10 -10 10 -34
0 -22 -5 -42 -12 -44 -7 -3 3 -5 22 -5 19 0 29 2 23 5 -8 3 -13 24 -13 54 0
48 -3 52 -27 42z"/>
<path d="M3870 4441 c-476 -318 -866 -586 -868 -595 -10 -50 74 1 925 571 483
322 882 590 888 595 5 4 -10 8 -35 7 -42 0 -97 -35 -910 -578z"/>
<path d="M5926 4947 c65 -40 467 -286 892 -546 483 -296 779 -471 788 -467 9
3 14 13 12 22 -2 9 -380 247 -858 540 -822 503 -857 523 -904 524 l-50 0 120
-73z"/>
<path d="M11220 5011 c0 -5 -12 -11 -27 -13 -22 -2 112 -88 665 -426 432 -265
699 -422 708 -418 9 3 14 13 12 22 -2 9 -290 192 -648 411 -355 217 -660 403
-677 415 -18 11 -33 15 -33 9z"/>
<path d="M10067 4788 c-4 -117 -10 -315 -13 -440 l-7 -228 25 0 24 0 12 388
c17 522 17 492 -11 492 l-24 0 -6 -212z"/>
<path d="M13335 3943 l-25 -38 30 -3 c20 -2 30 -9 31 -20 0 -15 1 -15 7 1 10
23 3 97 -9 97 -4 0 -20 -17 -34 -37z m35 -8 c0 -18 -5 -25 -20 -25 -17 0 -18
3 -8 25 6 14 15 25 20 25 4 0 8 -11 8 -25z"/>
<path d="M7246 3742 c-3 -6 2 -8 14 -5 29 8 37 -23 13 -50 -38 -41 -37 -47 4
-46 32 2 33 3 9 6 l-28 5 22 23 c27 29 24 69 -7 73 -11 2 -24 -1 -27 -6z"/>
<path d="M9976 3542 c-3 -5 4 -8 16 -8 30 1 34 -22 6 -33 l-23 -10 23 0 c16
-1 22 -7 22 -22 0 -17 -5 -20 -25 -17 -13 3 -22 1 -19 -3 8 -14 40 -10 54 6 6
8 8 20 4 27 -4 7 -8 24 -8 38 -1 18 -7 26 -23 28 -11 2 -24 -1 -27 -6z"/>
<path d="M2723 3503 c-7 -2 -13 -9 -13 -14 0 -6 5 -7 10 -4 6 4 10 -10 10 -34
0 -22 -5 -42 -12 -44 -7 -3 3 -5 22 -5 19 0 29 2 23 5 -8 3 -13 24 -13 54 0
48 -3 52 -27 42z"/>
<path d="M14180 3161 c0 -5 -12 -11 -27 -13 -22 -2 141 -106 820 -521 531
-325 854 -517 863 -513 9 3 14 13 12 22 -2 9 -364 237 -823 518 -451 276 -826
505 -832 509 -7 5 -13 4 -13 -2z"/>
<path d="M13350 3138 c0 -6 -9 -288 -20 -626 -14 -400 -17 -619 -11 -625 17
-17 41 1 41 30 0 15 9 289 20 608 11 319 20 590 20 603 0 17 -6 22 -25 22 -14
0 -25 -5 -25 -12z"/>
<path d="M10802 3049 c3 -31 35 -52 833 -540 457 -280 837 -507 845 -506 58 9
2 47 -720 489 -404 247 -786 481 -848 519 l-113 69 3 -31z"/>
<path d="M1435 2281 c-987 -659 -1030 -690 -1033 -721 -3 -24 0 -30 10 -24 33
20 2124 1418 2133 1425 5 5 -10 9 -35 8 -42 0 -105 -40 -1075 -688z"/>
<path d="M3911 2318 c585 -358 1073 -652 1084 -652 13 -1 20 5 20 17 0 14
-263 180 -1035 653 -997 610 -1037 633 -1084 634 -49 0 -32 -10 1015 -652z"/>
<path d="M7037 2598 c-4 -161 -10 -393 -14 -515 -5 -197 -4 -223 9 -223 14 0
16 41 22 318 3 174 8 406 10 515 3 153 1 197 -8 197 -10 0 -14 -69 -19 -292z"/>
<path d="M7680 2858 c19 -17 64 -56 99 -87 119 -105 155 -136 181 -161 15 -14
48 -43 75 -64 26 -22 57 -49 69 -60 12 -12 51 -46 86 -76 35 -30 77 -67 92
-81 15 -15 45 -40 66 -57 21 -17 57 -48 79 -69 51 -48 91 -83 173 -153 35 -30
85 -74 111 -97 53 -49 69 -53 69 -18 0 14 -3 25 -8 25 -4 0 -28 19 -53 43 -25
23 -72 65 -103 92 -63 54 -108 94 -200 177 -32 29 -70 62 -85 73 -15 11 -36
29 -47 40 -11 11 -45 41 -75 67 -29 26 -67 59 -84 73 -16 14 -52 45 -79 68
-26 23 -63 56 -81 72 -17 17 -58 53 -90 80 -32 28 -81 71 -109 97 -41 39 -58
48 -86 48 l-35 -1 35 -31z"/>
<path d="M9990 2775 c0 -41 -7 -280 -16 -531 -10 -300 -12 -460 -5 -467 18
-18 41 1 41 35 0 18 7 220 15 448 8 228 15 454 15 503 0 86 0 87 -25 87 -24 0
-25 -2 -25 -75z"/>
<path d="M12440 1801 c-24 -46 -3 -97 37 -89 13 2 18 12 18 33 0 25 -5 31 -29
35 -24 4 -26 7 -15 16 8 7 23 14 34 17 15 4 14 5 -7 6 -18 1 -31 -6 -38 -18z
m45 -56 c0 -11 -7 -21 -16 -23 -18 -3 -33 23 -23 39 10 17 39 5 39 -16z"/>
<path d="M8665 1703 l-25 -38 30 -3 c20 -2 30 -9 31 -20 0 -15 1 -15 7 1 10
23 3 97 -9 97 -4 0 -20 -17 -34 -37z m35 -8 c0 -18 -5 -25 -20 -25 -17 0 -18
3 -8 25 6 14 15 25 20 25 4 0 8 -11 8 -25z"/>
<path d="M15843 1644 c-3 -8 -1 -20 5 -26 8 -8 8 -15 1 -25 -18 -21 -2 -45 28
-41 20 2 29 9 31 26 2 12 -2 22 -9 22 -9 0 -8 4 1 15 7 8 10 22 6 30 -7 20
-55 19 -63 -1z m50 -1 c9 -9 -13 -34 -24 -27 -14 8 -11 34 4 34 8 0 17 -3 20
-7z m5 -60 c5 -17 -26 -29 -40 -15 -6 6 -7 15 -3 22 9 14 37 9 43 -7z"/>
<path d="M13317 1643 l33 -4 -25 -50 c-14 -27 -22 -49 -17 -49 8 0 52 84 52
100 0 6 -17 9 -37 8 -37 -1 -37 -1 -6 -5z"/>
<path d="M9830 1475 c0 -20 5 -25 25 -25 20 0 25 -5 25 -26 0 -23 -3 -26 -25
-22 -14 3 -25 1 -25 -3 0 -15 47 -10 60 6 16 19 6 45 -20 52 -27 7 -25 31 3
36 16 3 13 5 -10 6 -29 1 -33 -2 -33 -24z"/>
<path d="M4986 1372 c-3 -6 2 -8 14 -5 29 8 37 -23 13 -50 -38 -41 -37 -47 4
-46 32 2 33 3 9 6 l-28 5 22 23 c27 29 24 69 -7 73 -11 2 -24 -1 -27 -6z"/>
<path d="M7086 1282 c-3 -5 4 -8 16 -8 30 1 34 -22 6 -33 l-23 -10 23 0 c16
-1 22 -7 22 -22 0 -17 -5 -20 -25 -17 -13 3 -22 1 -19 -3 8 -14 40 -10 54 6 6
8 8 20 4 27 -4 7 -8 24 -8 38 -1 18 -7 26 -23 28 -11 2 -24 -1 -27 -6z"/>
<path d="M183 1103 c-7 -2 -13 -9 -13 -14 0 -6 5 -7 10 -4 6 4 10 -10 10 -34
0 -22 -5 -42 -12 -44 -7 -3 3 -5 22 -5 19 0 29 2 23 5 -8 3 -13 24 -13 54 0
48 -3 52 -27 42z"/>
</g>
</svg>
